<svg xmlns="http://www.w3.org/2000/svg" xmlns:xlink="http://www.w3.org/1999/xlink" preserveAspectRatio="xMidYMid" width="115" height="23.03" viewBox="0 0 115 23.03">
  <defs>
    <style>
      .cls-1 {
        fill: #000;
        fill-rule: evenodd;
      }
    </style>
  </defs>
  <path d="M105.000,23.030 L10.000,23.030 C4.477,23.030 -0.000,18.553 -0.000,13.030 L-0.000,9.999 C-0.000,4.476 4.477,-0.001 10.000,-0.001 L105.000,-0.001 C110.523,-0.001 115.000,4.476 115.000,9.999 L115.000,13.030 C115.000,18.553 110.523,23.030 105.000,23.030 ZM10.793,6.326 L5.963,6.326 L5.963,7.025 L7.956,7.025 L7.956,17.536 L8.767,17.536 L8.767,7.025 L10.793,7.025 L10.793,6.326 ZM19.643,6.326 L18.849,6.326 L18.849,11.312 L15.899,11.312 L15.899,6.326 L15.121,6.326 L15.121,17.536 L15.899,17.536 L15.899,11.995 L18.849,11.995 L18.849,17.536 L19.643,17.536 L19.643,6.326 ZM28.834,6.326 L24.782,6.326 L24.782,17.536 L28.818,17.536 L28.818,16.838 L25.560,16.838 L25.560,12.026 L28.251,12.026 L28.251,11.344 L25.560,11.344 L25.560,7.025 L28.834,7.025 L28.834,6.326 ZM40.894,13.535 C40.894,12.948 40.878,12.312 40.359,11.884 C39.937,11.534 39.305,11.471 39.143,11.455 C39.386,11.407 40.148,11.312 40.408,10.518 C40.505,10.232 40.489,9.835 40.489,9.756 L40.489,8.089 C40.489,7.644 40.424,7.168 40.100,6.802 C39.613,6.263 38.803,6.326 38.625,6.326 L36.453,6.326 L36.453,17.536 L38.738,17.536 C38.965,17.536 39.727,17.568 40.327,17.060 C40.829,16.615 40.894,16.060 40.894,15.456 L40.894,13.535 ZM46.584,6.326 L45.757,6.326 L45.757,17.536 L46.584,17.536 L46.584,6.326 ZM56.244,6.326 L55.353,6.326 L52.500,11.820 L52.500,6.326 L51.706,6.326 L51.706,17.536 L52.484,17.536 L52.484,13.281 L53.327,11.725 L55.418,17.536 L56.277,17.536 L53.813,10.788 L56.244,6.326 ZM64.754,6.326 L60.702,6.326 L60.702,17.536 L64.738,17.536 L64.738,16.838 L61.480,16.838 L61.480,12.026 L64.171,12.026 L64.171,11.344 L61.480,11.344 L61.480,7.025 L64.754,7.025 L64.754,6.326 ZM76.976,7.025 C77.301,6.834 77.673,6.834 77.787,6.834 C78.776,6.834 79.019,7.438 79.083,7.819 C79.132,8.041 79.132,8.168 79.132,8.565 L79.132,9.565 L79.910,9.565 L79.910,8.756 C79.910,7.946 79.910,6.993 79.116,6.485 C78.597,6.167 77.949,6.167 77.771,6.167 C76.166,6.167 75.793,7.168 75.680,7.803 C75.615,8.120 75.615,8.581 75.615,8.644 C75.615,9.724 75.988,10.359 76.263,10.724 C76.506,11.058 76.912,11.503 77.576,12.138 C77.690,12.233 78.451,12.948 78.873,13.583 C79.083,13.916 79.278,14.313 79.278,15.186 C79.278,16.107 79.051,16.584 78.646,16.822 C78.306,17.028 77.949,17.028 77.819,17.028 C76.344,17.028 76.166,16.012 76.134,15.472 C76.117,15.234 76.134,15.012 76.134,14.774 L76.134,13.868 L75.339,13.868 L75.339,15.456 C75.339,15.790 75.355,16.044 75.469,16.361 C75.599,16.695 75.777,16.949 76.036,17.171 C76.198,17.314 76.328,17.393 76.409,17.441 C76.766,17.632 77.284,17.711 77.722,17.711 C78.824,17.711 79.391,17.282 79.667,16.885 C79.894,16.552 80.072,15.996 80.072,15.059 C80.072,14.170 79.910,13.551 79.343,12.852 C78.986,12.408 78.581,12.026 78.176,11.630 C77.900,11.344 77.641,11.074 77.398,10.788 C76.701,10.010 76.409,9.581 76.409,8.517 C76.409,7.692 76.620,7.247 76.976,7.025 ZM89.458,6.326 L88.663,6.326 L88.663,11.312 L85.713,11.312 L85.713,6.326 L84.935,6.326 L84.935,17.536 L85.713,17.536 L85.713,11.995 L88.663,11.995 L88.663,17.536 L89.458,17.536 L89.458,6.326 ZM99.151,9.057 C99.151,8.184 99.151,7.215 98.341,6.612 C97.919,6.310 97.400,6.199 96.882,6.199 C95.909,6.183 95.018,6.612 94.694,7.549 C94.515,8.057 94.515,8.692 94.515,8.819 L94.515,15.139 C94.515,15.805 94.564,16.441 95.018,16.996 C95.585,17.663 96.574,17.679 96.801,17.679 C97.968,17.679 98.567,17.123 98.810,16.711 C99.102,16.250 99.151,15.774 99.151,15.250 L99.151,9.057 ZM108.698,8.819 C108.698,7.993 108.698,7.263 108.082,6.771 C107.499,6.294 106.721,6.326 106.024,6.326 L104.241,6.326 L104.241,17.536 L105.035,17.536 L105.035,12.424 L106.202,12.424 C106.705,12.424 107.661,12.392 108.245,11.709 C108.682,11.201 108.698,10.693 108.698,10.089 L108.698,8.819 ZM106.316,11.772 L105.019,11.772 L105.019,6.977 L106.235,6.977 C106.899,6.977 107.159,7.025 107.450,7.247 C107.904,7.581 107.920,8.120 107.920,9.121 L107.920,10.089 C107.920,10.185 107.985,10.947 107.548,11.375 C107.207,11.725 106.753,11.772 106.316,11.772 ZM96.849,16.981 C95.942,16.981 95.536,16.409 95.423,16.107 C95.326,15.821 95.293,15.472 95.293,14.837 L95.293,8.660 C95.293,8.470 95.261,7.581 95.958,7.136 C96.087,7.057 96.379,6.898 96.833,6.898 C97.206,6.898 97.481,7.009 97.595,7.073 C97.919,7.231 98.049,7.469 98.114,7.596 C98.341,8.025 98.389,8.549 98.389,9.486 L98.389,14.948 C98.389,15.599 98.357,16.282 97.741,16.711 C97.481,16.901 97.174,16.981 96.849,16.981 ZM38.608,16.854 L37.263,16.854 L37.263,11.836 L38.074,11.836 C38.835,11.836 39.694,11.931 40.002,12.757 C40.083,12.995 40.100,13.249 40.100,13.519 L40.100,15.107 C40.100,15.933 40.035,16.314 39.662,16.599 C39.435,16.758 39.176,16.854 38.608,16.854 ZM38.025,11.153 L37.247,11.153 L37.247,6.993 L38.252,6.993 C38.754,6.993 39.419,7.009 39.630,7.581 C39.678,7.708 39.711,7.914 39.711,8.232 L39.711,9.581 C39.711,9.851 39.775,10.772 38.803,11.058 C38.576,11.121 38.463,11.153 38.025,11.153 Z" class="cls-1"/>
</svg>
